G04 #@! TF.GenerationSoftware,KiCad,Pcbnew,5.1.4+dfsg1-1*
G04 #@! TF.CreationDate,2020-05-14T03:41:50+02:00*
G04 #@! TF.ProjectId,qfn28-breakout,71666e32-382d-4627-9265-616b6f75742e,rev?*
G04 #@! TF.SameCoordinates,Original*
G04 #@! TF.FileFunction,Soldermask,Top*
G04 #@! TF.FilePolarity,Negative*
%FSLAX46Y46*%
G04 Gerber Fmt 4.6, Leading zero omitted, Abs format (unit mm)*
G04 Created by KiCad (PCBNEW 5.1.4+dfsg1-1) date 2020-05-14 03:41:50*
%MOMM*%
%LPD*%
G04 APERTURE LIST*
%ADD10C,0.100000*%
G04 APERTURE END LIST*
D10*
G36*
X83930442Y648594482D02*
G01*
X83996627Y648587963D01*
X84166466Y648536443D01*
X84322991Y648452778D01*
X84358729Y648423448D01*
X84460186Y648340186D01*
X84543448Y648238729D01*
X84572778Y648202991D01*
X84656443Y648046466D01*
X84707963Y647876627D01*
X84725359Y647700000D01*
X84707963Y647523373D01*
X84656443Y647353534D01*
X84572778Y647197009D01*
X84543448Y647161271D01*
X84460186Y647059814D01*
X84358729Y646976552D01*
X84322991Y646947222D01*
X84166466Y646863557D01*
X83996627Y646812037D01*
X83930442Y646805518D01*
X83864260Y646799000D01*
X83775740Y646799000D01*
X83709558Y646805518D01*
X83643373Y646812037D01*
X83473534Y646863557D01*
X83317009Y646947222D01*
X83281271Y646976552D01*
X83179814Y647059814D01*
X83096552Y647161271D01*
X83067222Y647197009D01*
X82983557Y647353534D01*
X82932037Y647523373D01*
X82914641Y647700000D01*
X82932037Y647876627D01*
X82983557Y648046466D01*
X83067222Y648202991D01*
X83096552Y648238729D01*
X83179814Y648340186D01*
X83281271Y648423448D01*
X83317009Y648452778D01*
X83473534Y648536443D01*
X83643373Y648587963D01*
X83709558Y648594482D01*
X83775740Y648601000D01*
X83864260Y648601000D01*
X83930442Y648594482D01*
X83930442Y648594482D01*
G37*
G36*
X86470442Y648594482D02*
G01*
X86536627Y648587963D01*
X86706466Y648536443D01*
X86862991Y648452778D01*
X86898729Y648423448D01*
X87000186Y648340186D01*
X87083448Y648238729D01*
X87112778Y648202991D01*
X87196443Y648046466D01*
X87247963Y647876627D01*
X87265359Y647700000D01*
X87247963Y647523373D01*
X87196443Y647353534D01*
X87112778Y647197009D01*
X87083448Y647161271D01*
X87000186Y647059814D01*
X86898729Y646976552D01*
X86862991Y646947222D01*
X86706466Y646863557D01*
X86536627Y646812037D01*
X86470442Y646805518D01*
X86404260Y646799000D01*
X86315740Y646799000D01*
X86249558Y646805518D01*
X86183373Y646812037D01*
X86013534Y646863557D01*
X85857009Y646947222D01*
X85821271Y646976552D01*
X85719814Y647059814D01*
X85636552Y647161271D01*
X85607222Y647197009D01*
X85523557Y647353534D01*
X85472037Y647523373D01*
X85454641Y647700000D01*
X85472037Y647876627D01*
X85523557Y648046466D01*
X85607222Y648202991D01*
X85636552Y648238729D01*
X85719814Y648340186D01*
X85821271Y648423448D01*
X85857009Y648452778D01*
X86013534Y648536443D01*
X86183373Y648587963D01*
X86249558Y648594482D01*
X86315740Y648601000D01*
X86404260Y648601000D01*
X86470442Y648594482D01*
X86470442Y648594482D01*
G37*
G36*
X89010442Y648594482D02*
G01*
X89076627Y648587963D01*
X89246466Y648536443D01*
X89402991Y648452778D01*
X89438729Y648423448D01*
X89540186Y648340186D01*
X89623448Y648238729D01*
X89652778Y648202991D01*
X89736443Y648046466D01*
X89787963Y647876627D01*
X89805359Y647700000D01*
X89787963Y647523373D01*
X89736443Y647353534D01*
X89652778Y647197009D01*
X89623448Y647161271D01*
X89540186Y647059814D01*
X89438729Y646976552D01*
X89402991Y646947222D01*
X89246466Y646863557D01*
X89076627Y646812037D01*
X89010442Y646805518D01*
X88944260Y646799000D01*
X88855740Y646799000D01*
X88789558Y646805518D01*
X88723373Y646812037D01*
X88553534Y646863557D01*
X88397009Y646947222D01*
X88361271Y646976552D01*
X88259814Y647059814D01*
X88176552Y647161271D01*
X88147222Y647197009D01*
X88063557Y647353534D01*
X88012037Y647523373D01*
X87994641Y647700000D01*
X88012037Y647876627D01*
X88063557Y648046466D01*
X88147222Y648202991D01*
X88176552Y648238729D01*
X88259814Y648340186D01*
X88361271Y648423448D01*
X88397009Y648452778D01*
X88553534Y648536443D01*
X88723373Y648587963D01*
X88789558Y648594482D01*
X88855740Y648601000D01*
X88944260Y648601000D01*
X89010442Y648594482D01*
X89010442Y648594482D01*
G37*
G36*
X74561000Y646799000D02*
G01*
X72759000Y646799000D01*
X72759000Y648601000D01*
X74561000Y648601000D01*
X74561000Y646799000D01*
X74561000Y646799000D01*
G37*
G36*
X78850442Y648594482D02*
G01*
X78916627Y648587963D01*
X79086466Y648536443D01*
X79242991Y648452778D01*
X79278729Y648423448D01*
X79380186Y648340186D01*
X79463448Y648238729D01*
X79492778Y648202991D01*
X79576443Y648046466D01*
X79627963Y647876627D01*
X79645359Y647700000D01*
X79627963Y647523373D01*
X79576443Y647353534D01*
X79492778Y647197009D01*
X79463448Y647161271D01*
X79380186Y647059814D01*
X79278729Y646976552D01*
X79242991Y646947222D01*
X79086466Y646863557D01*
X78916627Y646812037D01*
X78850442Y646805518D01*
X78784260Y646799000D01*
X78695740Y646799000D01*
X78629558Y646805518D01*
X78563373Y646812037D01*
X78393534Y646863557D01*
X78237009Y646947222D01*
X78201271Y646976552D01*
X78099814Y647059814D01*
X78016552Y647161271D01*
X77987222Y647197009D01*
X77903557Y647353534D01*
X77852037Y647523373D01*
X77834641Y647700000D01*
X77852037Y647876627D01*
X77903557Y648046466D01*
X77987222Y648202991D01*
X78016552Y648238729D01*
X78099814Y648340186D01*
X78201271Y648423448D01*
X78237009Y648452778D01*
X78393534Y648536443D01*
X78563373Y648587963D01*
X78629558Y648594482D01*
X78695740Y648601000D01*
X78784260Y648601000D01*
X78850442Y648594482D01*
X78850442Y648594482D01*
G37*
G36*
X81390442Y648594482D02*
G01*
X81456627Y648587963D01*
X81626466Y648536443D01*
X81782991Y648452778D01*
X81818729Y648423448D01*
X81920186Y648340186D01*
X82003448Y648238729D01*
X82032778Y648202991D01*
X82116443Y648046466D01*
X82167963Y647876627D01*
X82185359Y647700000D01*
X82167963Y647523373D01*
X82116443Y647353534D01*
X82032778Y647197009D01*
X82003448Y647161271D01*
X81920186Y647059814D01*
X81818729Y646976552D01*
X81782991Y646947222D01*
X81626466Y646863557D01*
X81456627Y646812037D01*
X81390442Y646805518D01*
X81324260Y646799000D01*
X81235740Y646799000D01*
X81169558Y646805518D01*
X81103373Y646812037D01*
X80933534Y646863557D01*
X80777009Y646947222D01*
X80741271Y646976552D01*
X80639814Y647059814D01*
X80556552Y647161271D01*
X80527222Y647197009D01*
X80443557Y647353534D01*
X80392037Y647523373D01*
X80374641Y647700000D01*
X80392037Y647876627D01*
X80443557Y648046466D01*
X80527222Y648202991D01*
X80556552Y648238729D01*
X80639814Y648340186D01*
X80741271Y648423448D01*
X80777009Y648452778D01*
X80933534Y648536443D01*
X81103373Y648587963D01*
X81169558Y648594482D01*
X81235740Y648601000D01*
X81324260Y648601000D01*
X81390442Y648594482D01*
X81390442Y648594482D01*
G37*
G36*
X76310442Y648594482D02*
G01*
X76376627Y648587963D01*
X76546466Y648536443D01*
X76702991Y648452778D01*
X76738729Y648423448D01*
X76840186Y648340186D01*
X76923448Y648238729D01*
X76952778Y648202991D01*
X77036443Y648046466D01*
X77087963Y647876627D01*
X77105359Y647700000D01*
X77087963Y647523373D01*
X77036443Y647353534D01*
X76952778Y647197009D01*
X76923448Y647161271D01*
X76840186Y647059814D01*
X76738729Y646976552D01*
X76702991Y646947222D01*
X76546466Y646863557D01*
X76376627Y646812037D01*
X76310442Y646805518D01*
X76244260Y646799000D01*
X76155740Y646799000D01*
X76089558Y646805518D01*
X76023373Y646812037D01*
X75853534Y646863557D01*
X75697009Y646947222D01*
X75661271Y646976552D01*
X75559814Y647059814D01*
X75476552Y647161271D01*
X75447222Y647197009D01*
X75363557Y647353534D01*
X75312037Y647523373D01*
X75294641Y647700000D01*
X75312037Y647876627D01*
X75363557Y648046466D01*
X75447222Y648202991D01*
X75476552Y648238729D01*
X75559814Y648340186D01*
X75661271Y648423448D01*
X75697009Y648452778D01*
X75853534Y648536443D01*
X76023373Y648587963D01*
X76089558Y648594482D01*
X76155740Y648601000D01*
X76244260Y648601000D01*
X76310442Y648594482D01*
X76310442Y648594482D01*
G37*
G36*
X68690443Y653674481D02*
G01*
X68756627Y653667963D01*
X68926466Y653616443D01*
X69082991Y653532778D01*
X69118729Y653503448D01*
X69220186Y653420186D01*
X69303448Y653318729D01*
X69332778Y653282991D01*
X69416443Y653126466D01*
X69467963Y652956627D01*
X69485359Y652780000D01*
X69467963Y652603373D01*
X69416443Y652433534D01*
X69332778Y652277009D01*
X69303448Y652241271D01*
X69220186Y652139814D01*
X69118729Y652056552D01*
X69082991Y652027222D01*
X68926466Y651943557D01*
X68756627Y651892037D01*
X68690442Y651885518D01*
X68624260Y651879000D01*
X68535740Y651879000D01*
X68469558Y651885518D01*
X68403373Y651892037D01*
X68233534Y651943557D01*
X68077009Y652027222D01*
X68041271Y652056552D01*
X67939814Y652139814D01*
X67856552Y652241271D01*
X67827222Y652277009D01*
X67743557Y652433534D01*
X67692037Y652603373D01*
X67674641Y652780000D01*
X67692037Y652956627D01*
X67743557Y653126466D01*
X67827222Y653282991D01*
X67856552Y653318729D01*
X67939814Y653420186D01*
X68041271Y653503448D01*
X68077009Y653532778D01*
X68233534Y653616443D01*
X68403373Y653667963D01*
X68469557Y653674481D01*
X68535740Y653681000D01*
X68624260Y653681000D01*
X68690443Y653674481D01*
X68690443Y653674481D01*
G37*
G36*
X94881000Y651879000D02*
G01*
X93079000Y651879000D01*
X93079000Y653681000D01*
X94881000Y653681000D01*
X94881000Y651879000D01*
X94881000Y651879000D01*
G37*
G36*
X94090442Y656214482D02*
G01*
X94156627Y656207963D01*
X94326466Y656156443D01*
X94482991Y656072778D01*
X94518729Y656043448D01*
X94620186Y655960186D01*
X94703448Y655858729D01*
X94732778Y655822991D01*
X94816443Y655666466D01*
X94867963Y655496627D01*
X94885359Y655320000D01*
X94867963Y655143373D01*
X94816443Y654973534D01*
X94732778Y654817009D01*
X94703448Y654781271D01*
X94620186Y654679814D01*
X94518729Y654596552D01*
X94482991Y654567222D01*
X94326466Y654483557D01*
X94156627Y654432037D01*
X94090442Y654425518D01*
X94024260Y654419000D01*
X93935740Y654419000D01*
X93869558Y654425518D01*
X93803373Y654432037D01*
X93633534Y654483557D01*
X93477009Y654567222D01*
X93441271Y654596552D01*
X93339814Y654679814D01*
X93256552Y654781271D01*
X93227222Y654817009D01*
X93143557Y654973534D01*
X93092037Y655143373D01*
X93074641Y655320000D01*
X93092037Y655496627D01*
X93143557Y655666466D01*
X93227222Y655822991D01*
X93256552Y655858729D01*
X93339814Y655960186D01*
X93441271Y656043448D01*
X93477009Y656072778D01*
X93633534Y656156443D01*
X93803373Y656207963D01*
X93869558Y656214482D01*
X93935740Y656221000D01*
X94024260Y656221000D01*
X94090442Y656214482D01*
X94090442Y656214482D01*
G37*
G36*
X68690442Y656214482D02*
G01*
X68756627Y656207963D01*
X68926466Y656156443D01*
X69082991Y656072778D01*
X69118729Y656043448D01*
X69220186Y655960186D01*
X69303448Y655858729D01*
X69332778Y655822991D01*
X69416443Y655666466D01*
X69467963Y655496627D01*
X69485359Y655320000D01*
X69467963Y655143373D01*
X69416443Y654973534D01*
X69332778Y654817009D01*
X69303448Y654781271D01*
X69220186Y654679814D01*
X69118729Y654596552D01*
X69082991Y654567222D01*
X68926466Y654483557D01*
X68756627Y654432037D01*
X68690442Y654425518D01*
X68624260Y654419000D01*
X68535740Y654419000D01*
X68469558Y654425518D01*
X68403373Y654432037D01*
X68233534Y654483557D01*
X68077009Y654567222D01*
X68041271Y654596552D01*
X67939814Y654679814D01*
X67856552Y654781271D01*
X67827222Y654817009D01*
X67743557Y654973534D01*
X67692037Y655143373D01*
X67674641Y655320000D01*
X67692037Y655496627D01*
X67743557Y655666466D01*
X67827222Y655822991D01*
X67856552Y655858729D01*
X67939814Y655960186D01*
X68041271Y656043448D01*
X68077009Y656072778D01*
X68233534Y656156443D01*
X68403373Y656207963D01*
X68469558Y656214482D01*
X68535740Y656221000D01*
X68624260Y656221000D01*
X68690442Y656214482D01*
X68690442Y656214482D01*
G37*
G36*
X94090443Y658754481D02*
G01*
X94156627Y658747963D01*
X94326466Y658696443D01*
X94482991Y658612778D01*
X94518729Y658583448D01*
X94620186Y658500186D01*
X94703448Y658398729D01*
X94732778Y658362991D01*
X94816443Y658206466D01*
X94867963Y658036627D01*
X94885359Y657860000D01*
X94867963Y657683373D01*
X94816443Y657513534D01*
X94732778Y657357009D01*
X94703448Y657321271D01*
X94620186Y657219814D01*
X94518729Y657136552D01*
X94482991Y657107222D01*
X94326466Y657023557D01*
X94156627Y656972037D01*
X94090442Y656965518D01*
X94024260Y656959000D01*
X93935740Y656959000D01*
X93869558Y656965518D01*
X93803373Y656972037D01*
X93633534Y657023557D01*
X93477009Y657107222D01*
X93441271Y657136552D01*
X93339814Y657219814D01*
X93256552Y657321271D01*
X93227222Y657357009D01*
X93143557Y657513534D01*
X93092037Y657683373D01*
X93074641Y657860000D01*
X93092037Y658036627D01*
X93143557Y658206466D01*
X93227222Y658362991D01*
X93256552Y658398729D01*
X93339814Y658500186D01*
X93441271Y658583448D01*
X93477009Y658612778D01*
X93633534Y658696443D01*
X93803373Y658747963D01*
X93869557Y658754481D01*
X93935740Y658761000D01*
X94024260Y658761000D01*
X94090443Y658754481D01*
X94090443Y658754481D01*
G37*
G36*
X68690443Y658754481D02*
G01*
X68756627Y658747963D01*
X68926466Y658696443D01*
X69082991Y658612778D01*
X69118729Y658583448D01*
X69220186Y658500186D01*
X69303448Y658398729D01*
X69332778Y658362991D01*
X69416443Y658206466D01*
X69467963Y658036627D01*
X69485359Y657860000D01*
X69467963Y657683373D01*
X69416443Y657513534D01*
X69332778Y657357009D01*
X69303448Y657321271D01*
X69220186Y657219814D01*
X69118729Y657136552D01*
X69082991Y657107222D01*
X68926466Y657023557D01*
X68756627Y656972037D01*
X68690442Y656965518D01*
X68624260Y656959000D01*
X68535740Y656959000D01*
X68469558Y656965518D01*
X68403373Y656972037D01*
X68233534Y657023557D01*
X68077009Y657107222D01*
X68041271Y657136552D01*
X67939814Y657219814D01*
X67856552Y657321271D01*
X67827222Y657357009D01*
X67743557Y657513534D01*
X67692037Y657683373D01*
X67674641Y657860000D01*
X67692037Y658036627D01*
X67743557Y658206466D01*
X67827222Y658362991D01*
X67856552Y658398729D01*
X67939814Y658500186D01*
X68041271Y658583448D01*
X68077009Y658612778D01*
X68233534Y658696443D01*
X68403373Y658747963D01*
X68469557Y658754481D01*
X68535740Y658761000D01*
X68624260Y658761000D01*
X68690443Y658754481D01*
X68690443Y658754481D01*
G37*
G36*
X80220416Y658925157D02*
G01*
X80224556Y658923901D01*
X80243716Y658915965D01*
X80267750Y658911185D01*
X80292254Y658911185D01*
X80316287Y658915966D01*
X80335445Y658923901D01*
X80339584Y658925157D01*
X80348143Y658926000D01*
X80611857Y658926000D01*
X80620416Y658925157D01*
X80624556Y658923901D01*
X80643716Y658915965D01*
X80667750Y658911185D01*
X80692254Y658911185D01*
X80716287Y658915966D01*
X80735445Y658923901D01*
X80739584Y658925157D01*
X80748143Y658926000D01*
X81011857Y658926000D01*
X81020416Y658925157D01*
X81024556Y658923901D01*
X81043716Y658915965D01*
X81067750Y658911185D01*
X81092254Y658911185D01*
X81116287Y658915966D01*
X81135445Y658923901D01*
X81139584Y658925157D01*
X81148143Y658926000D01*
X81411857Y658926000D01*
X81420416Y658925157D01*
X81424556Y658923901D01*
X81443716Y658915965D01*
X81467750Y658911185D01*
X81492254Y658911185D01*
X81516287Y658915966D01*
X81535445Y658923901D01*
X81539584Y658925157D01*
X81548143Y658926000D01*
X81811857Y658926000D01*
X81820416Y658925157D01*
X81824556Y658923901D01*
X81843716Y658915965D01*
X81867750Y658911185D01*
X81892254Y658911185D01*
X81916287Y658915966D01*
X81935445Y658923901D01*
X81939584Y658925157D01*
X81948143Y658926000D01*
X82211857Y658926000D01*
X82220416Y658925157D01*
X82224556Y658923901D01*
X82243716Y658915965D01*
X82267750Y658911185D01*
X82292254Y658911185D01*
X82316287Y658915966D01*
X82335445Y658923901D01*
X82339584Y658925157D01*
X82348143Y658926000D01*
X82611859Y658926000D01*
X82617950Y658925400D01*
X82630400Y658925400D01*
X82630400Y658912950D01*
X82631000Y658906859D01*
X82631000Y658018143D01*
X82630157Y658009584D01*
X82629450Y658007255D01*
X82628305Y658005113D01*
X82626765Y658003235D01*
X82624887Y658001695D01*
X82622745Y658000550D01*
X82620416Y657999843D01*
X82611857Y657999000D01*
X82348143Y657999000D01*
X82339584Y657999843D01*
X82335444Y658001099D01*
X82316284Y658009035D01*
X82292250Y658013815D01*
X82267746Y658013815D01*
X82243713Y658009034D01*
X82224555Y658001099D01*
X82220416Y657999843D01*
X82211857Y657999000D01*
X81948143Y657999000D01*
X81939584Y657999843D01*
X81935444Y658001099D01*
X81916284Y658009035D01*
X81892250Y658013815D01*
X81867746Y658013815D01*
X81843713Y658009034D01*
X81824555Y658001099D01*
X81820416Y657999843D01*
X81811857Y657999000D01*
X81548143Y657999000D01*
X81539584Y657999843D01*
X81535444Y658001099D01*
X81516284Y658009035D01*
X81492250Y658013815D01*
X81467746Y658013815D01*
X81443713Y658009034D01*
X81424555Y658001099D01*
X81420416Y657999843D01*
X81411857Y657999000D01*
X81148143Y657999000D01*
X81139584Y657999843D01*
X81135444Y658001099D01*
X81116284Y658009035D01*
X81092250Y658013815D01*
X81067746Y658013815D01*
X81043713Y658009034D01*
X81024555Y658001099D01*
X81020416Y657999843D01*
X81011857Y657999000D01*
X80748143Y657999000D01*
X80739584Y657999843D01*
X80735444Y658001099D01*
X80716284Y658009035D01*
X80692250Y658013815D01*
X80667746Y658013815D01*
X80643713Y658009034D01*
X80624555Y658001099D01*
X80620416Y657999843D01*
X80611857Y657999000D01*
X80348143Y657999000D01*
X80339584Y657999843D01*
X80335444Y658001099D01*
X80316284Y658009035D01*
X80292250Y658013815D01*
X80267746Y658013815D01*
X80243713Y658009034D01*
X80224555Y658001099D01*
X80220416Y657999843D01*
X80211857Y657999000D01*
X79948143Y657999000D01*
X79939584Y657999843D01*
X79937255Y658000550D01*
X79935113Y658001695D01*
X79933235Y658003235D01*
X79931695Y658005113D01*
X79930550Y658007255D01*
X79929843Y658009584D01*
X79929000Y658018143D01*
X79929000Y658906859D01*
X79929600Y658912950D01*
X79929600Y658925400D01*
X79942050Y658925400D01*
X79948141Y658926000D01*
X80211857Y658926000D01*
X80220416Y658925157D01*
X80220416Y658925157D01*
G37*
G36*
X83670416Y661750157D02*
G01*
X83672745Y661749450D01*
X83674887Y661748305D01*
X83676765Y661746765D01*
X83678305Y661744887D01*
X83679450Y661742745D01*
X83680157Y661740416D01*
X83681000Y661731857D01*
X83681000Y661468143D01*
X83680157Y661459584D01*
X83678901Y661455444D01*
X83670965Y661436284D01*
X83666185Y661412250D01*
X83666185Y661387746D01*
X83670966Y661363713D01*
X83678901Y661344555D01*
X83680157Y661340416D01*
X83681000Y661331857D01*
X83681000Y661068143D01*
X83680157Y661059584D01*
X83678901Y661055444D01*
X83670965Y661036284D01*
X83666185Y661012250D01*
X83666185Y660987746D01*
X83670966Y660963713D01*
X83678901Y660944555D01*
X83680157Y660940416D01*
X83681000Y660931857D01*
X83681000Y660668143D01*
X83680157Y660659584D01*
X83678901Y660655444D01*
X83670965Y660636284D01*
X83666185Y660612250D01*
X83666185Y660587746D01*
X83670966Y660563713D01*
X83678901Y660544555D01*
X83680157Y660540416D01*
X83681000Y660531857D01*
X83681000Y660268143D01*
X83680157Y660259584D01*
X83678901Y660255444D01*
X83670965Y660236284D01*
X83666185Y660212250D01*
X83666185Y660187746D01*
X83670966Y660163713D01*
X83678901Y660144555D01*
X83680157Y660140416D01*
X83681000Y660131857D01*
X83681000Y659868143D01*
X83680157Y659859584D01*
X83678901Y659855444D01*
X83670965Y659836284D01*
X83666185Y659812250D01*
X83666185Y659787746D01*
X83670966Y659763713D01*
X83678901Y659744555D01*
X83680157Y659740416D01*
X83681000Y659731857D01*
X83681000Y659468143D01*
X83680157Y659459584D01*
X83678901Y659455444D01*
X83670965Y659436284D01*
X83666185Y659412250D01*
X83666185Y659387746D01*
X83670966Y659363713D01*
X83678901Y659344555D01*
X83680157Y659340416D01*
X83681000Y659331857D01*
X83681000Y659068143D01*
X83680157Y659059584D01*
X83679450Y659057255D01*
X83678305Y659055113D01*
X83676765Y659053235D01*
X83674887Y659051695D01*
X83672745Y659050550D01*
X83670416Y659049843D01*
X83661857Y659049000D01*
X82773141Y659049000D01*
X82767050Y659049600D01*
X82754600Y659049600D01*
X82754600Y659062050D01*
X82754000Y659068141D01*
X82754000Y659331857D01*
X82754843Y659340416D01*
X82756099Y659344556D01*
X82764035Y659363716D01*
X82768815Y659387750D01*
X82768815Y659412254D01*
X82764034Y659436287D01*
X82756099Y659455445D01*
X82754843Y659459584D01*
X82754000Y659468143D01*
X82754000Y659731857D01*
X82754843Y659740416D01*
X82756099Y659744556D01*
X82764035Y659763716D01*
X82768815Y659787750D01*
X82768815Y659812254D01*
X82764034Y659836287D01*
X82756099Y659855445D01*
X82754843Y659859584D01*
X82754000Y659868143D01*
X82754000Y660131857D01*
X82754843Y660140416D01*
X82756099Y660144556D01*
X82764035Y660163716D01*
X82768815Y660187750D01*
X82768815Y660212254D01*
X82764034Y660236287D01*
X82756099Y660255445D01*
X82754843Y660259584D01*
X82754000Y660268143D01*
X82754000Y660531857D01*
X82754843Y660540416D01*
X82756099Y660544556D01*
X82764035Y660563716D01*
X82768815Y660587750D01*
X82768815Y660612254D01*
X82764034Y660636287D01*
X82756099Y660655445D01*
X82754843Y660659584D01*
X82754000Y660668143D01*
X82754000Y660931857D01*
X82754843Y660940416D01*
X82756099Y660944556D01*
X82764035Y660963716D01*
X82768815Y660987750D01*
X82768815Y661012254D01*
X82764034Y661036287D01*
X82756099Y661055445D01*
X82754843Y661059584D01*
X82754000Y661068143D01*
X82754000Y661331857D01*
X82754843Y661340416D01*
X82756099Y661344556D01*
X82764035Y661363716D01*
X82768815Y661387750D01*
X82768815Y661412254D01*
X82764034Y661436287D01*
X82756099Y661455445D01*
X82754843Y661459584D01*
X82754000Y661468143D01*
X82754000Y661731859D01*
X82754600Y661737950D01*
X82754600Y661750400D01*
X82767050Y661750400D01*
X82773141Y661751000D01*
X83661857Y661751000D01*
X83670416Y661750157D01*
X83670416Y661750157D01*
G37*
G36*
X79792950Y661750400D02*
G01*
X79805400Y661750400D01*
X79805400Y661737950D01*
X79806000Y661731859D01*
X79806000Y661468143D01*
X79805157Y661459584D01*
X79803901Y661455444D01*
X79795965Y661436284D01*
X79791185Y661412250D01*
X79791185Y661387746D01*
X79795966Y661363713D01*
X79803901Y661344555D01*
X79805157Y661340416D01*
X79806000Y661331857D01*
X79806000Y661068143D01*
X79805157Y661059584D01*
X79803901Y661055444D01*
X79795965Y661036284D01*
X79791185Y661012250D01*
X79791185Y660987746D01*
X79795966Y660963713D01*
X79803901Y660944555D01*
X79805157Y660940416D01*
X79806000Y660931857D01*
X79806000Y660668143D01*
X79805157Y660659584D01*
X79803901Y660655444D01*
X79795965Y660636284D01*
X79791185Y660612250D01*
X79791185Y660587746D01*
X79795966Y660563713D01*
X79803901Y660544555D01*
X79805157Y660540416D01*
X79806000Y660531857D01*
X79806000Y660268143D01*
X79805157Y660259584D01*
X79803901Y660255444D01*
X79795965Y660236284D01*
X79791185Y660212250D01*
X79791185Y660187746D01*
X79795966Y660163713D01*
X79803901Y660144555D01*
X79805157Y660140416D01*
X79806000Y660131857D01*
X79806000Y659868143D01*
X79805157Y659859584D01*
X79803901Y659855444D01*
X79795965Y659836284D01*
X79791185Y659812250D01*
X79791185Y659787746D01*
X79795966Y659763713D01*
X79803901Y659744555D01*
X79805157Y659740416D01*
X79806000Y659731857D01*
X79806000Y659468143D01*
X79805157Y659459584D01*
X79803901Y659455444D01*
X79795965Y659436284D01*
X79791185Y659412250D01*
X79791185Y659387746D01*
X79795966Y659363713D01*
X79803901Y659344555D01*
X79805157Y659340416D01*
X79806000Y659331857D01*
X79806000Y659068141D01*
X79805400Y659062050D01*
X79805400Y659049600D01*
X79792950Y659049600D01*
X79786859Y659049000D01*
X78898143Y659049000D01*
X78889584Y659049843D01*
X78887255Y659050550D01*
X78885113Y659051695D01*
X78883235Y659053235D01*
X78881695Y659055113D01*
X78880550Y659057255D01*
X78879843Y659059584D01*
X78879000Y659068143D01*
X78879000Y659331857D01*
X78879843Y659340416D01*
X78881099Y659344556D01*
X78889035Y659363716D01*
X78893815Y659387750D01*
X78893815Y659412254D01*
X78889034Y659436287D01*
X78881099Y659455445D01*
X78879843Y659459584D01*
X78879000Y659468143D01*
X78879000Y659731857D01*
X78879843Y659740416D01*
X78881099Y659744556D01*
X78889035Y659763716D01*
X78893815Y659787750D01*
X78893815Y659812254D01*
X78889034Y659836287D01*
X78881099Y659855445D01*
X78879843Y659859584D01*
X78879000Y659868143D01*
X78879000Y660131857D01*
X78879843Y660140416D01*
X78881099Y660144556D01*
X78889035Y660163716D01*
X78893815Y660187750D01*
X78893815Y660212254D01*
X78889034Y660236287D01*
X78881099Y660255445D01*
X78879843Y660259584D01*
X78879000Y660268143D01*
X78879000Y660531857D01*
X78879843Y660540416D01*
X78881099Y660544556D01*
X78889035Y660563716D01*
X78893815Y660587750D01*
X78893815Y660612254D01*
X78889034Y660636287D01*
X78881099Y660655445D01*
X78879843Y660659584D01*
X78879000Y660668143D01*
X78879000Y660931857D01*
X78879843Y660940416D01*
X78881099Y660944556D01*
X78889035Y660963716D01*
X78893815Y660987750D01*
X78893815Y661012254D01*
X78889034Y661036287D01*
X78881099Y661055445D01*
X78879843Y661059584D01*
X78879000Y661068143D01*
X78879000Y661331857D01*
X78879843Y661340416D01*
X78881099Y661344556D01*
X78889035Y661363716D01*
X78893815Y661387750D01*
X78893815Y661412254D01*
X78889034Y661436287D01*
X78881099Y661455445D01*
X78879843Y661459584D01*
X78879000Y661468143D01*
X78879000Y661731857D01*
X78879843Y661740416D01*
X78880550Y661742745D01*
X78881695Y661744887D01*
X78883235Y661746765D01*
X78885113Y661748305D01*
X78887255Y661749450D01*
X78889584Y661750157D01*
X78898143Y661751000D01*
X79786859Y661751000D01*
X79792950Y661750400D01*
X79792950Y661750400D01*
G37*
G36*
X82349472Y661597270D02*
G01*
X82379984Y661588014D01*
X82408104Y661572983D01*
X82432754Y661552754D01*
X82452983Y661528104D01*
X82468014Y661499984D01*
X82477270Y661469472D01*
X82481000Y661431598D01*
X82481000Y659368402D01*
X82477270Y659330528D01*
X82468014Y659300016D01*
X82452983Y659271896D01*
X82432754Y659247246D01*
X82408104Y659227017D01*
X82379984Y659211986D01*
X82349472Y659202730D01*
X82311598Y659199000D01*
X80248402Y659199000D01*
X80210528Y659202730D01*
X80180016Y659211986D01*
X80151896Y659227017D01*
X80127246Y659247246D01*
X80107017Y659271896D01*
X80091986Y659300016D01*
X80082730Y659330528D01*
X80079000Y659368402D01*
X80079000Y661431598D01*
X80082730Y661469472D01*
X80091986Y661499984D01*
X80107017Y661528104D01*
X80127246Y661552754D01*
X80151896Y661572983D01*
X80180016Y661588014D01*
X80210528Y661597270D01*
X80248402Y661601000D01*
X82311598Y661601000D01*
X82349472Y661597270D01*
X82349472Y661597270D01*
G37*
G36*
X94090443Y661294481D02*
G01*
X94156627Y661287963D01*
X94326466Y661236443D01*
X94482991Y661152778D01*
X94517448Y661124500D01*
X94620186Y661040186D01*
X94693378Y660951000D01*
X94732778Y660902991D01*
X94816443Y660746466D01*
X94867963Y660576627D01*
X94885359Y660400000D01*
X94867963Y660223373D01*
X94816443Y660053534D01*
X94732778Y659897009D01*
X94709088Y659868143D01*
X94620186Y659759814D01*
X94552654Y659704393D01*
X94482991Y659647222D01*
X94326466Y659563557D01*
X94156627Y659512037D01*
X94090443Y659505519D01*
X94024260Y659499000D01*
X93935740Y659499000D01*
X93869557Y659505519D01*
X93803373Y659512037D01*
X93633534Y659563557D01*
X93477009Y659647222D01*
X93407346Y659704393D01*
X93339814Y659759814D01*
X93250912Y659868143D01*
X93227222Y659897009D01*
X93143557Y660053534D01*
X93092037Y660223373D01*
X93074641Y660400000D01*
X93092037Y660576627D01*
X93143557Y660746466D01*
X93227222Y660902991D01*
X93266622Y660951000D01*
X93339814Y661040186D01*
X93442552Y661124500D01*
X93477009Y661152778D01*
X93633534Y661236443D01*
X93803373Y661287963D01*
X93869557Y661294481D01*
X93935740Y661301000D01*
X94024260Y661301000D01*
X94090443Y661294481D01*
X94090443Y661294481D01*
G37*
G36*
X68690443Y661294481D02*
G01*
X68756627Y661287963D01*
X68926466Y661236443D01*
X69082991Y661152778D01*
X69117448Y661124500D01*
X69220186Y661040186D01*
X69293378Y660951000D01*
X69332778Y660902991D01*
X69416443Y660746466D01*
X69467963Y660576627D01*
X69485359Y660400000D01*
X69467963Y660223373D01*
X69416443Y660053534D01*
X69332778Y659897009D01*
X69309088Y659868143D01*
X69220186Y659759814D01*
X69152654Y659704393D01*
X69082991Y659647222D01*
X68926466Y659563557D01*
X68756627Y659512037D01*
X68690443Y659505519D01*
X68624260Y659499000D01*
X68535740Y659499000D01*
X68469557Y659505519D01*
X68403373Y659512037D01*
X68233534Y659563557D01*
X68077009Y659647222D01*
X68007346Y659704393D01*
X67939814Y659759814D01*
X67850912Y659868143D01*
X67827222Y659897009D01*
X67743557Y660053534D01*
X67692037Y660223373D01*
X67674641Y660400000D01*
X67692037Y660576627D01*
X67743557Y660746466D01*
X67827222Y660902991D01*
X67866622Y660951000D01*
X67939814Y661040186D01*
X68042552Y661124500D01*
X68077009Y661152778D01*
X68233534Y661236443D01*
X68403373Y661287963D01*
X68469557Y661294481D01*
X68535740Y661301000D01*
X68624260Y661301000D01*
X68690443Y661294481D01*
X68690443Y661294481D01*
G37*
G36*
X80220416Y662800157D02*
G01*
X80224556Y662798901D01*
X80243716Y662790965D01*
X80267750Y662786185D01*
X80292254Y662786185D01*
X80316287Y662790966D01*
X80335445Y662798901D01*
X80339584Y662800157D01*
X80348143Y662801000D01*
X80611857Y662801000D01*
X80620416Y662800157D01*
X80624556Y662798901D01*
X80643716Y662790965D01*
X80667750Y662786185D01*
X80692254Y662786185D01*
X80716287Y662790966D01*
X80735445Y662798901D01*
X80739584Y662800157D01*
X80748143Y662801000D01*
X81011857Y662801000D01*
X81020416Y662800157D01*
X81024556Y662798901D01*
X81043716Y662790965D01*
X81067750Y662786185D01*
X81092254Y662786185D01*
X81116287Y662790966D01*
X81135445Y662798901D01*
X81139584Y662800157D01*
X81148143Y662801000D01*
X81411857Y662801000D01*
X81420416Y662800157D01*
X81424556Y662798901D01*
X81443716Y662790965D01*
X81467750Y662786185D01*
X81492254Y662786185D01*
X81516287Y662790966D01*
X81535445Y662798901D01*
X81539584Y662800157D01*
X81548143Y662801000D01*
X81811857Y662801000D01*
X81820416Y662800157D01*
X81824556Y662798901D01*
X81843716Y662790965D01*
X81867750Y662786185D01*
X81892254Y662786185D01*
X81916287Y662790966D01*
X81935445Y662798901D01*
X81939584Y662800157D01*
X81948143Y662801000D01*
X82211857Y662801000D01*
X82220416Y662800157D01*
X82224556Y662798901D01*
X82243716Y662790965D01*
X82267750Y662786185D01*
X82292254Y662786185D01*
X82316287Y662790966D01*
X82335445Y662798901D01*
X82339584Y662800157D01*
X82348143Y662801000D01*
X82611857Y662801000D01*
X82620416Y662800157D01*
X82622745Y662799450D01*
X82624887Y662798305D01*
X82626765Y662796765D01*
X82628305Y662794887D01*
X82629450Y662792745D01*
X82630157Y662790416D01*
X82631000Y662781857D01*
X82631000Y661893141D01*
X82630400Y661887050D01*
X82630400Y661874600D01*
X82617950Y661874600D01*
X82611859Y661874000D01*
X82348143Y661874000D01*
X82339584Y661874843D01*
X82335444Y661876099D01*
X82316284Y661884035D01*
X82292250Y661888815D01*
X82267746Y661888815D01*
X82243713Y661884034D01*
X82224555Y661876099D01*
X82220416Y661874843D01*
X82211857Y661874000D01*
X81948143Y661874000D01*
X81939584Y661874843D01*
X81935444Y661876099D01*
X81916284Y661884035D01*
X81892250Y661888815D01*
X81867746Y661888815D01*
X81843713Y661884034D01*
X81824555Y661876099D01*
X81820416Y661874843D01*
X81811857Y661874000D01*
X81548143Y661874000D01*
X81539584Y661874843D01*
X81535444Y661876099D01*
X81516284Y661884035D01*
X81492250Y661888815D01*
X81467746Y661888815D01*
X81443713Y661884034D01*
X81424555Y661876099D01*
X81420416Y661874843D01*
X81411857Y661874000D01*
X81148143Y661874000D01*
X81139584Y661874843D01*
X81135444Y661876099D01*
X81116284Y661884035D01*
X81092250Y661888815D01*
X81067746Y661888815D01*
X81043713Y661884034D01*
X81024555Y661876099D01*
X81020416Y661874843D01*
X81011857Y661874000D01*
X80748143Y661874000D01*
X80739584Y661874843D01*
X80735444Y661876099D01*
X80716284Y661884035D01*
X80692250Y661888815D01*
X80667746Y661888815D01*
X80643713Y661884034D01*
X80624555Y661876099D01*
X80620416Y661874843D01*
X80611857Y661874000D01*
X80348143Y661874000D01*
X80339584Y661874843D01*
X80335444Y661876099D01*
X80316284Y661884035D01*
X80292250Y661888815D01*
X80267746Y661888815D01*
X80243713Y661884034D01*
X80224555Y661876099D01*
X80220416Y661874843D01*
X80211857Y661874000D01*
X79948141Y661874000D01*
X79942050Y661874600D01*
X79929600Y661874600D01*
X79929600Y661887050D01*
X79929000Y661893141D01*
X79929000Y662781857D01*
X79929843Y662790416D01*
X79930550Y662792745D01*
X79931695Y662794887D01*
X79933235Y662796765D01*
X79935113Y662798305D01*
X79937255Y662799450D01*
X79939584Y662800157D01*
X79948143Y662801000D01*
X80211857Y662801000D01*
X80220416Y662800157D01*
X80220416Y662800157D01*
G37*
G36*
X68690443Y663834481D02*
G01*
X68756627Y663827963D01*
X68926466Y663776443D01*
X69082991Y663692778D01*
X69118729Y663663448D01*
X69220186Y663580186D01*
X69303448Y663478729D01*
X69332778Y663442991D01*
X69416443Y663286466D01*
X69467963Y663116627D01*
X69485359Y662940000D01*
X69467963Y662763373D01*
X69416443Y662593534D01*
X69332778Y662437009D01*
X69303448Y662401271D01*
X69220186Y662299814D01*
X69118729Y662216552D01*
X69082991Y662187222D01*
X68926466Y662103557D01*
X68756627Y662052037D01*
X68690442Y662045518D01*
X68624260Y662039000D01*
X68535740Y662039000D01*
X68469558Y662045518D01*
X68403373Y662052037D01*
X68233534Y662103557D01*
X68077009Y662187222D01*
X68041271Y662216552D01*
X67939814Y662299814D01*
X67856552Y662401271D01*
X67827222Y662437009D01*
X67743557Y662593534D01*
X67692037Y662763373D01*
X67674641Y662940000D01*
X67692037Y663116627D01*
X67743557Y663286466D01*
X67827222Y663442991D01*
X67856552Y663478729D01*
X67939814Y663580186D01*
X68041271Y663663448D01*
X68077009Y663692778D01*
X68233534Y663776443D01*
X68403373Y663827963D01*
X68469557Y663834481D01*
X68535740Y663841000D01*
X68624260Y663841000D01*
X68690443Y663834481D01*
X68690443Y663834481D01*
G37*
G36*
X94090443Y663834481D02*
G01*
X94156627Y663827963D01*
X94326466Y663776443D01*
X94482991Y663692778D01*
X94518729Y663663448D01*
X94620186Y663580186D01*
X94703448Y663478729D01*
X94732778Y663442991D01*
X94816443Y663286466D01*
X94867963Y663116627D01*
X94885359Y662940000D01*
X94867963Y662763373D01*
X94816443Y662593534D01*
X94732778Y662437009D01*
X94703448Y662401271D01*
X94620186Y662299814D01*
X94518729Y662216552D01*
X94482991Y662187222D01*
X94326466Y662103557D01*
X94156627Y662052037D01*
X94090442Y662045518D01*
X94024260Y662039000D01*
X93935740Y662039000D01*
X93869558Y662045518D01*
X93803373Y662052037D01*
X93633534Y662103557D01*
X93477009Y662187222D01*
X93441271Y662216552D01*
X93339814Y662299814D01*
X93256552Y662401271D01*
X93227222Y662437009D01*
X93143557Y662593534D01*
X93092037Y662763373D01*
X93074641Y662940000D01*
X93092037Y663116627D01*
X93143557Y663286466D01*
X93227222Y663442991D01*
X93256552Y663478729D01*
X93339814Y663580186D01*
X93441271Y663663448D01*
X93477009Y663692778D01*
X93633534Y663776443D01*
X93803373Y663827963D01*
X93869557Y663834481D01*
X93935740Y663841000D01*
X94024260Y663841000D01*
X94090443Y663834481D01*
X94090443Y663834481D01*
G37*
G36*
X94090443Y666374481D02*
G01*
X94156627Y666367963D01*
X94326466Y666316443D01*
X94482991Y666232778D01*
X94518729Y666203448D01*
X94620186Y666120186D01*
X94703448Y666018729D01*
X94732778Y665982991D01*
X94816443Y665826466D01*
X94867963Y665656627D01*
X94885359Y665480000D01*
X94867963Y665303373D01*
X94816443Y665133534D01*
X94732778Y664977009D01*
X94707101Y664945722D01*
X94620186Y664839814D01*
X94518729Y664756552D01*
X94482991Y664727222D01*
X94326466Y664643557D01*
X94156627Y664592037D01*
X94090442Y664585518D01*
X94024260Y664579000D01*
X93935740Y664579000D01*
X93869558Y664585518D01*
X93803373Y664592037D01*
X93633534Y664643557D01*
X93477009Y664727222D01*
X93441271Y664756552D01*
X93339814Y664839814D01*
X93252899Y664945722D01*
X93227222Y664977009D01*
X93143557Y665133534D01*
X93092037Y665303373D01*
X93074641Y665480000D01*
X93092037Y665656627D01*
X93143557Y665826466D01*
X93227222Y665982991D01*
X93256552Y666018729D01*
X93339814Y666120186D01*
X93441271Y666203448D01*
X93477009Y666232778D01*
X93633534Y666316443D01*
X93803373Y666367963D01*
X93869557Y666374481D01*
X93935740Y666381000D01*
X94024260Y666381000D01*
X94090443Y666374481D01*
X94090443Y666374481D01*
G37*
G36*
X68690443Y666374481D02*
G01*
X68756627Y666367963D01*
X68926466Y666316443D01*
X69082991Y666232778D01*
X69118729Y666203448D01*
X69220186Y666120186D01*
X69303448Y666018729D01*
X69332778Y665982991D01*
X69416443Y665826466D01*
X69467963Y665656627D01*
X69485359Y665480000D01*
X69467963Y665303373D01*
X69416443Y665133534D01*
X69332778Y664977009D01*
X69307101Y664945722D01*
X69220186Y664839814D01*
X69118729Y664756552D01*
X69082991Y664727222D01*
X68926466Y664643557D01*
X68756627Y664592037D01*
X68690442Y664585518D01*
X68624260Y664579000D01*
X68535740Y664579000D01*
X68469558Y664585518D01*
X68403373Y664592037D01*
X68233534Y664643557D01*
X68077009Y664727222D01*
X68041271Y664756552D01*
X67939814Y664839814D01*
X67852899Y664945722D01*
X67827222Y664977009D01*
X67743557Y665133534D01*
X67692037Y665303373D01*
X67674641Y665480000D01*
X67692037Y665656627D01*
X67743557Y665826466D01*
X67827222Y665982991D01*
X67856552Y666018729D01*
X67939814Y666120186D01*
X68041271Y666203448D01*
X68077009Y666232778D01*
X68233534Y666316443D01*
X68403373Y666367963D01*
X68469557Y666374481D01*
X68535740Y666381000D01*
X68624260Y666381000D01*
X68690443Y666374481D01*
X68690443Y666374481D01*
G37*
G36*
X89114968Y666226435D02*
G01*
X89153638Y666214704D01*
X89189277Y666195654D01*
X89220517Y666170017D01*
X89246154Y666138777D01*
X89265204Y666103138D01*
X89276935Y666064468D01*
X89281500Y666018112D01*
X89281500Y664941888D01*
X89276935Y664895532D01*
X89265204Y664856862D01*
X89246154Y664821223D01*
X89220517Y664789983D01*
X89189277Y664764346D01*
X89153638Y664745296D01*
X89114968Y664733565D01*
X89068612Y664729000D01*
X88417388Y664729000D01*
X88371032Y664733565D01*
X88332362Y664745296D01*
X88296723Y664764346D01*
X88265483Y664789983D01*
X88239846Y664821223D01*
X88220796Y664856862D01*
X88209065Y664895532D01*
X88204500Y664941888D01*
X88204500Y666018112D01*
X88209065Y666064468D01*
X88220796Y666103138D01*
X88239846Y666138777D01*
X88265483Y666170017D01*
X88296723Y666195654D01*
X88332362Y666214704D01*
X88371032Y666226435D01*
X88417388Y666231000D01*
X89068612Y666231000D01*
X89114968Y666226435D01*
X89114968Y666226435D01*
G37*
G36*
X87239968Y666226435D02*
G01*
X87278638Y666214704D01*
X87314277Y666195654D01*
X87345517Y666170017D01*
X87371154Y666138777D01*
X87390204Y666103138D01*
X87401935Y666064468D01*
X87406500Y666018112D01*
X87406500Y664941888D01*
X87401935Y664895532D01*
X87390204Y664856862D01*
X87371154Y664821223D01*
X87345517Y664789983D01*
X87314277Y664764346D01*
X87278638Y664745296D01*
X87239968Y664733565D01*
X87193612Y664729000D01*
X86542388Y664729000D01*
X86496032Y664733565D01*
X86457362Y664745296D01*
X86421723Y664764346D01*
X86390483Y664789983D01*
X86364846Y664821223D01*
X86345796Y664856862D01*
X86334065Y664895532D01*
X86329500Y664941888D01*
X86329500Y666018112D01*
X86334065Y666064468D01*
X86345796Y666103138D01*
X86364846Y666138777D01*
X86390483Y666170017D01*
X86421723Y666195654D01*
X86457362Y666214704D01*
X86496032Y666226435D01*
X86542388Y666231000D01*
X87193612Y666231000D01*
X87239968Y666226435D01*
X87239968Y666226435D01*
G37*
G36*
X69481000Y667119000D02*
G01*
X67679000Y667119000D01*
X67679000Y668921000D01*
X69481000Y668921000D01*
X69481000Y667119000D01*
X69481000Y667119000D01*
G37*
G36*
X94090442Y668914482D02*
G01*
X94156627Y668907963D01*
X94326466Y668856443D01*
X94482991Y668772778D01*
X94518729Y668743448D01*
X94620186Y668660186D01*
X94703448Y668558729D01*
X94732778Y668522991D01*
X94816443Y668366466D01*
X94867963Y668196627D01*
X94885359Y668020000D01*
X94867963Y667843373D01*
X94816443Y667673534D01*
X94732778Y667517009D01*
X94703448Y667481271D01*
X94620186Y667379814D01*
X94518729Y667296552D01*
X94482991Y667267222D01*
X94326466Y667183557D01*
X94156627Y667132037D01*
X94090443Y667125519D01*
X94024260Y667119000D01*
X93935740Y667119000D01*
X93869557Y667125519D01*
X93803373Y667132037D01*
X93633534Y667183557D01*
X93477009Y667267222D01*
X93441271Y667296552D01*
X93339814Y667379814D01*
X93256552Y667481271D01*
X93227222Y667517009D01*
X93143557Y667673534D01*
X93092037Y667843373D01*
X93074641Y668020000D01*
X93092037Y668196627D01*
X93143557Y668366466D01*
X93227222Y668522991D01*
X93256552Y668558729D01*
X93339814Y668660186D01*
X93441271Y668743448D01*
X93477009Y668772778D01*
X93633534Y668856443D01*
X93803373Y668907963D01*
X93869558Y668914482D01*
X93935740Y668921000D01*
X94024260Y668921000D01*
X94090442Y668914482D01*
X94090442Y668914482D01*
G37*
G36*
X86470443Y673994481D02*
G01*
X86536627Y673987963D01*
X86706466Y673936443D01*
X86862991Y673852778D01*
X86898729Y673823448D01*
X87000186Y673740186D01*
X87083448Y673638729D01*
X87112778Y673602991D01*
X87196443Y673446466D01*
X87247963Y673276627D01*
X87265359Y673100000D01*
X87247963Y672923373D01*
X87196443Y672753534D01*
X87112778Y672597009D01*
X87083448Y672561271D01*
X87000186Y672459814D01*
X86898729Y672376552D01*
X86862991Y672347222D01*
X86706466Y672263557D01*
X86536627Y672212037D01*
X86470443Y672205519D01*
X86404260Y672199000D01*
X86315740Y672199000D01*
X86249557Y672205519D01*
X86183373Y672212037D01*
X86013534Y672263557D01*
X85857009Y672347222D01*
X85821271Y672376552D01*
X85719814Y672459814D01*
X85636552Y672561271D01*
X85607222Y672597009D01*
X85523557Y672753534D01*
X85472037Y672923373D01*
X85454641Y673100000D01*
X85472037Y673276627D01*
X85523557Y673446466D01*
X85607222Y673602991D01*
X85636552Y673638729D01*
X85719814Y673740186D01*
X85821271Y673823448D01*
X85857009Y673852778D01*
X86013534Y673936443D01*
X86183373Y673987963D01*
X86249557Y673994481D01*
X86315740Y674001000D01*
X86404260Y674001000D01*
X86470443Y673994481D01*
X86470443Y673994481D01*
G37*
G36*
X73770443Y673994481D02*
G01*
X73836627Y673987963D01*
X74006466Y673936443D01*
X74162991Y673852778D01*
X74198729Y673823448D01*
X74300186Y673740186D01*
X74383448Y673638729D01*
X74412778Y673602991D01*
X74496443Y673446466D01*
X74547963Y673276627D01*
X74565359Y673100000D01*
X74547963Y672923373D01*
X74496443Y672753534D01*
X74412778Y672597009D01*
X74383448Y672561271D01*
X74300186Y672459814D01*
X74198729Y672376552D01*
X74162991Y672347222D01*
X74006466Y672263557D01*
X73836627Y672212037D01*
X73770443Y672205519D01*
X73704260Y672199000D01*
X73615740Y672199000D01*
X73549557Y672205519D01*
X73483373Y672212037D01*
X73313534Y672263557D01*
X73157009Y672347222D01*
X73121271Y672376552D01*
X73019814Y672459814D01*
X72936552Y672561271D01*
X72907222Y672597009D01*
X72823557Y672753534D01*
X72772037Y672923373D01*
X72754641Y673100000D01*
X72772037Y673276627D01*
X72823557Y673446466D01*
X72907222Y673602991D01*
X72936552Y673638729D01*
X73019814Y673740186D01*
X73121271Y673823448D01*
X73157009Y673852778D01*
X73313534Y673936443D01*
X73483373Y673987963D01*
X73549557Y673994481D01*
X73615740Y674001000D01*
X73704260Y674001000D01*
X73770443Y673994481D01*
X73770443Y673994481D01*
G37*
G36*
X76310443Y673994481D02*
G01*
X76376627Y673987963D01*
X76546466Y673936443D01*
X76702991Y673852778D01*
X76738729Y673823448D01*
X76840186Y673740186D01*
X76923448Y673638729D01*
X76952778Y673602991D01*
X77036443Y673446466D01*
X77087963Y673276627D01*
X77105359Y673100000D01*
X77087963Y672923373D01*
X77036443Y672753534D01*
X76952778Y672597009D01*
X76923448Y672561271D01*
X76840186Y672459814D01*
X76738729Y672376552D01*
X76702991Y672347222D01*
X76546466Y672263557D01*
X76376627Y672212037D01*
X76310443Y672205519D01*
X76244260Y672199000D01*
X76155740Y672199000D01*
X76089557Y672205519D01*
X76023373Y672212037D01*
X75853534Y672263557D01*
X75697009Y672347222D01*
X75661271Y672376552D01*
X75559814Y672459814D01*
X75476552Y672561271D01*
X75447222Y672597009D01*
X75363557Y672753534D01*
X75312037Y672923373D01*
X75294641Y673100000D01*
X75312037Y673276627D01*
X75363557Y673446466D01*
X75447222Y673602991D01*
X75476552Y673638729D01*
X75559814Y673740186D01*
X75661271Y673823448D01*
X75697009Y673852778D01*
X75853534Y673936443D01*
X76023373Y673987963D01*
X76089557Y673994481D01*
X76155740Y674001000D01*
X76244260Y674001000D01*
X76310443Y673994481D01*
X76310443Y673994481D01*
G37*
G36*
X78850443Y673994481D02*
G01*
X78916627Y673987963D01*
X79086466Y673936443D01*
X79242991Y673852778D01*
X79278729Y673823448D01*
X79380186Y673740186D01*
X79463448Y673638729D01*
X79492778Y673602991D01*
X79576443Y673446466D01*
X79627963Y673276627D01*
X79645359Y673100000D01*
X79627963Y672923373D01*
X79576443Y672753534D01*
X79492778Y672597009D01*
X79463448Y672561271D01*
X79380186Y672459814D01*
X79278729Y672376552D01*
X79242991Y672347222D01*
X79086466Y672263557D01*
X78916627Y672212037D01*
X78850443Y672205519D01*
X78784260Y672199000D01*
X78695740Y672199000D01*
X78629557Y672205519D01*
X78563373Y672212037D01*
X78393534Y672263557D01*
X78237009Y672347222D01*
X78201271Y672376552D01*
X78099814Y672459814D01*
X78016552Y672561271D01*
X77987222Y672597009D01*
X77903557Y672753534D01*
X77852037Y672923373D01*
X77834641Y673100000D01*
X77852037Y673276627D01*
X77903557Y673446466D01*
X77987222Y673602991D01*
X78016552Y673638729D01*
X78099814Y673740186D01*
X78201271Y673823448D01*
X78237009Y673852778D01*
X78393534Y673936443D01*
X78563373Y673987963D01*
X78629557Y673994481D01*
X78695740Y674001000D01*
X78784260Y674001000D01*
X78850443Y673994481D01*
X78850443Y673994481D01*
G37*
G36*
X81390443Y673994481D02*
G01*
X81456627Y673987963D01*
X81626466Y673936443D01*
X81782991Y673852778D01*
X81818729Y673823448D01*
X81920186Y673740186D01*
X82003448Y673638729D01*
X82032778Y673602991D01*
X82116443Y673446466D01*
X82167963Y673276627D01*
X82185359Y673100000D01*
X82167963Y672923373D01*
X82116443Y672753534D01*
X82032778Y672597009D01*
X82003448Y672561271D01*
X81920186Y672459814D01*
X81818729Y672376552D01*
X81782991Y672347222D01*
X81626466Y672263557D01*
X81456627Y672212037D01*
X81390443Y672205519D01*
X81324260Y672199000D01*
X81235740Y672199000D01*
X81169557Y672205519D01*
X81103373Y672212037D01*
X80933534Y672263557D01*
X80777009Y672347222D01*
X80741271Y672376552D01*
X80639814Y672459814D01*
X80556552Y672561271D01*
X80527222Y672597009D01*
X80443557Y672753534D01*
X80392037Y672923373D01*
X80374641Y673100000D01*
X80392037Y673276627D01*
X80443557Y673446466D01*
X80527222Y673602991D01*
X80556552Y673638729D01*
X80639814Y673740186D01*
X80741271Y673823448D01*
X80777009Y673852778D01*
X80933534Y673936443D01*
X81103373Y673987963D01*
X81169557Y673994481D01*
X81235740Y674001000D01*
X81324260Y674001000D01*
X81390443Y673994481D01*
X81390443Y673994481D01*
G37*
G36*
X83930443Y673994481D02*
G01*
X83996627Y673987963D01*
X84166466Y673936443D01*
X84322991Y673852778D01*
X84358729Y673823448D01*
X84460186Y673740186D01*
X84543448Y673638729D01*
X84572778Y673602991D01*
X84656443Y673446466D01*
X84707963Y673276627D01*
X84725359Y673100000D01*
X84707963Y672923373D01*
X84656443Y672753534D01*
X84572778Y672597009D01*
X84543448Y672561271D01*
X84460186Y672459814D01*
X84358729Y672376552D01*
X84322991Y672347222D01*
X84166466Y672263557D01*
X83996627Y672212037D01*
X83930443Y672205519D01*
X83864260Y672199000D01*
X83775740Y672199000D01*
X83709557Y672205519D01*
X83643373Y672212037D01*
X83473534Y672263557D01*
X83317009Y672347222D01*
X83281271Y672376552D01*
X83179814Y672459814D01*
X83096552Y672561271D01*
X83067222Y672597009D01*
X82983557Y672753534D01*
X82932037Y672923373D01*
X82914641Y673100000D01*
X82932037Y673276627D01*
X82983557Y673446466D01*
X83067222Y673602991D01*
X83096552Y673638729D01*
X83179814Y673740186D01*
X83281271Y673823448D01*
X83317009Y673852778D01*
X83473534Y673936443D01*
X83643373Y673987963D01*
X83709557Y673994481D01*
X83775740Y674001000D01*
X83864260Y674001000D01*
X83930443Y673994481D01*
X83930443Y673994481D01*
G37*
G36*
X89801000Y672199000D02*
G01*
X87999000Y672199000D01*
X87999000Y674001000D01*
X89801000Y674001000D01*
X89801000Y672199000D01*
X89801000Y672199000D01*
G37*
M02*
