M48
; DRILL file {KiCad 5.1.4+dfsg1-1} date Thu 14 May 2020 03:48:27 CEST
; FORMAT={-:-/ absolute / inch / decimal}
; #@! TF.CreationDate,2020-05-14T03:48:27+02:00
; #@! TF.GenerationSoftware,Kicad,Pcbnew,5.1.4+dfsg1-1
; #@! TF.FileFunction,Plated,1,2,PTH
FMAT,2
INCH
T1C0.0079
T2C0.0157
T3C0.0394
%
G90
G05
T1
X3.1646Y26.0354
X3.1646Y26.0
X3.1646Y25.9646
X3.2Y26.0354
X3.2Y26.0
X3.2Y25.9646
X3.2354Y26.0354
X3.2354Y26.0
X3.2354Y25.9646
T2
X2.9Y25.8
X3.34Y26.2
T3
X2.7Y26.3
X2.7Y26.2
X2.7Y26.1
X2.7Y26.0
X2.7Y25.9
X2.7Y25.8
X2.7Y25.7
X2.9Y26.5
X3.0Y26.5
X3.1Y26.5
X3.2Y26.5
X3.3Y26.5
X3.4Y26.5
X3.5Y26.5
X3.7Y26.3
X3.7Y26.2
X3.7Y26.1
X3.7Y26.0
X3.7Y25.9
X3.7Y25.8
X3.7Y25.7
X2.9Y25.5
X3.0Y25.5
X3.1Y25.5
X3.2Y25.5
X3.3Y25.5
X3.4Y25.5
X3.5Y25.5
T0
M30
